<svg width="242" height="164" viewBox="0 0 242 164" fill="none" xmlns="http://www.w3.org/2000/svg">
<path d="M179.292 35.0003C179.292 21.9395 179.292 15.4062 183.349 11.3491C187.406 7.29199 193.936 7.29199 207 7.29199C220.061 7.29199 226.594 7.29199 230.651 11.3491C234.708 15.4062 234.708 21.9366 234.708 35.0003C234.708 48.0612 234.708 54.5945 230.651 58.6516C226.594 62.7087 220.064 62.7087 207 62.7087C193.939 62.7087 187.406 62.7087 183.349 58.6516C179.292 54.5945 179.292 48.0641 179.292 35.0003Z" stroke="black" stroke-width="1.5" stroke-linecap="round" stroke-linejoin="round"/>
<path d="M206.218 35V46.6667C206.218 47.9507 205.795 49.1989 205.013 50.2176C204.231 51.2363 203.135 51.9686 201.895 52.301C200.654 52.6333 199.339 52.5471 198.153 52.0558C196.966 51.5644 195.975 50.6953 195.333 49.5833M225.862 37.9167C225.35 37.0295 224.613 36.2928 223.726 35.7808C222.838 35.2688 221.832 34.9995 220.808 35H219.349C218.189 35 217.076 35.4609 216.256 36.2814C215.435 37.1019 214.974 38.2147 214.974 39.375C214.974 40.5353 215.435 41.6481 216.256 42.4686C217.076 43.2891 218.189 43.75 219.349 43.75H222.266C223.426 43.75 224.539 44.2109 225.359 45.0314C226.18 45.8519 226.641 46.9647 226.641 48.125C226.641 49.2853 226.18 50.3981 225.359 51.2186C224.539 52.0391 223.426 52.5 222.266 52.5H220.808C219.784 52.5 218.778 52.2304 217.891 51.7184C217.004 51.2065 216.268 50.4701 215.756 49.5833" stroke="black" stroke-width="1.5" stroke-linecap="round" stroke-linejoin="round"/>
<path d="M60.5325 13.9767L52.2492 55.7142C52.0885 56.5234 51.7023 57.2707 51.1352 57.8699C50.568 58.4691 49.843 58.8957 49.0438 59.1004L37.1758 62.1483C35.7484 62.5148 34.2516 62.5148 32.8242 62.1483L20.9533 59.1004C20.1556 58.8949 19.4321 58.4683 18.866 57.8698C18.3 57.2713 17.9144 56.5251 17.7538 55.7171L9.4675 13.9767C9.34162 13.3424 9.35791 12.6881 9.51521 12.0608C9.67251 11.4336 9.9669 10.849 10.3772 10.3491C10.7875 9.84931 11.3035 9.44664 11.8881 9.17013C12.4726 8.89362 13.1112 8.75013 13.7579 8.75H56.2421C56.8888 8.75013 57.5274 8.89362 58.1119 9.17013C58.6965 9.44664 59.2125 9.84931 59.6228 10.3491C60.0331 10.849 60.3275 11.4336 60.4848 12.0608C60.6421 12.6881 60.6584 13.3424 60.5325 13.9767Z" stroke="black" stroke-width="1.5" stroke-linecap="round" stroke-linejoin="round"/>
<path d="M49.5833 20.0693H22.5517C22.2925 20.069 22.0365 20.1263 21.8021 20.237C21.5678 20.3477 21.361 20.509 21.1966 20.7094C21.0322 20.9098 20.9144 21.1442 20.8516 21.3957C20.7889 21.6471 20.7828 21.9094 20.8338 22.1635L23.3392 34.6818H46.6608L44.0621 47.6843C43.9637 48.176 43.7402 48.634 43.4133 49.0141C43.0863 49.3942 42.6668 49.6836 42.1954 49.8543L35.9946 52.1002C35.3529 52.3326 34.65 52.3326 34.0083 52.1002L27.8046 49.8543C27.3332 49.6836 26.9137 49.3942 26.5867 49.0141C26.2598 48.634 26.0363 48.176 25.9379 47.6843L25.2846 44.4206" stroke="black" stroke-width="1.5" stroke-linecap="round" stroke-linejoin="round"/>
<path d="M146.533 13.9767L138.249 55.7142C138.089 56.5234 137.702 57.2707 137.135 57.8699C136.568 58.4691 135.843 58.8957 135.044 59.1004L123.176 62.1483C121.748 62.5148 120.252 62.5148 118.824 62.1483L106.953 59.1004C106.156 58.8949 105.432 58.4683 104.866 57.8698C104.3 57.2713 103.914 56.5251 103.754 55.7171L95.4675 13.9767C95.3416 13.3424 95.3579 12.6881 95.5152 12.0608C95.6725 11.4336 95.9669 10.849 96.3772 10.3491C96.7875 9.84931 97.3035 9.44664 97.8881 9.17013C98.4726 8.89362 99.1112 8.75013 99.7579 8.75H142.242C142.889 8.75013 143.527 8.89362 144.112 9.17013C144.696 9.44664 145.212 9.84931 145.623 10.3491C146.033 10.849 146.327 11.4336 146.485 12.0608C146.642 12.6881 146.658 13.3424 146.533 13.9767Z" stroke="black" stroke-width="1.5" stroke-linecap="round" stroke-linejoin="round"/>
<path d="M132.661 34.6818L130.062 47.6843C129.964 48.176 129.74 48.634 129.413 49.0141C129.086 49.3942 128.667 49.6836 128.195 49.8543L121.995 52.1002C121.353 52.3326 120.65 52.3326 120.008 52.1002L113.749 49.8339C113.288 49.6592 112.878 49.3691 112.561 48.9912C112.243 48.6134 112.028 48.1604 111.935 47.6756L111.288 44.4264M132.661 34.6818L135.166 22.1635C135.217 21.9094 135.211 21.6471 135.148 21.3957C135.086 21.1442 134.968 20.9098 134.803 20.7094C134.639 20.509 134.432 20.3477 134.198 20.237C133.964 20.1263 133.708 20.069 133.448 20.0693H106.417M132.661 34.6818H109.339" stroke="black" stroke-width="1.5" stroke-linecap="round" stroke-linejoin="round"/>
<path d="M34.5953 150.438C34.3656 150.438 34.1359 150.372 33.9281 150.263L31.8281 149.016C31.5109 148.841 31.6641 148.775 31.7734 148.743C32.1891 148.6 32.2766 148.568 32.725 148.305C32.7688 148.283 32.8344 148.294 32.8781 148.316L34.4969 149.278C34.5516 149.311 34.6391 149.311 34.6938 149.278L41.0156 145.625C41.0703 145.593 41.1141 145.527 41.1141 145.45V138.155C41.1141 138.078 41.0812 138.013 41.0156 137.98L34.6938 134.338C34.6391 134.305 34.5625 134.305 34.4969 134.338L28.175 137.98C28.1094 138.013 28.0766 138.089 28.0766 138.155V145.45C28.0766 145.516 28.1203 145.582 28.175 145.614L29.9031 146.61C30.8438 147.08 31.4234 146.522 31.4234 145.975V138.768C31.4234 138.669 31.5 138.582 31.6094 138.582H32.4078C32.5062 138.582 32.5938 138.658 32.5938 138.768V145.975C32.5938 147.233 31.9156 147.944 30.7234 147.944C30.3625 147.944 30.0672 147.944 29.2688 147.55L27.6062 146.599C27.2016 146.358 26.9391 145.921 26.9391 145.45V138.155C26.9391 137.685 27.1906 137.236 27.6062 137.007L33.9281 133.353C34.3328 133.124 34.8578 133.124 35.2516 133.353L41.5734 137.007C41.9781 137.247 42.2406 137.685 42.2406 138.155V145.45C42.2406 145.921 41.9891 146.369 41.5734 146.599L35.2516 150.252C35.0656 150.372 34.8359 150.438 34.5953 150.438ZM39.7031 143.241C39.7031 141.874 38.7844 141.513 36.8375 141.25C34.8687 140.988 34.6719 140.857 34.6719 140.397C34.6719 140.014 34.8359 139.511 36.2906 139.511C37.5922 139.511 38.0734 139.796 38.2703 140.671C38.2922 140.758 38.3578 140.813 38.4453 140.813H39.2656C39.3203 140.813 39.3641 140.791 39.3969 140.758C39.4297 140.714 39.4516 140.671 39.4406 140.616C39.3094 139.107 38.3141 138.407 36.2906 138.407C34.4859 138.407 33.4141 139.172 33.4141 140.441C33.4141 141.83 34.4859 142.202 36.2141 142.377C38.2812 142.585 38.4453 142.88 38.4453 143.285C38.4453 143.996 37.8766 144.291 36.5422 144.291C34.8688 144.291 34.4969 143.875 34.3766 143.044C34.3656 142.957 34.2891 142.891 34.1906 142.891H33.3703C33.2719 142.891 33.1844 142.968 33.1844 143.077C33.1844 144.138 33.7641 145.407 36.5312 145.407C38.5547 145.407 39.7031 144.619 39.7031 143.241ZM45.6641 137.761C45.6641 138.428 45.1172 138.975 44.45 138.975C43.7828 138.975 43.2359 138.428 43.2359 137.761C43.2359 137.072 43.8047 136.547 44.45 136.547C45.1063 136.536 45.6641 137.072 45.6641 137.761ZM45.4672 137.761C45.4672 137.193 45.0078 136.744 44.4391 136.744C43.8812 136.744 43.4219 137.193 43.4219 137.761C43.4219 138.33 43.8812 138.789 44.4391 138.789C45.0078 138.778 45.4672 138.319 45.4672 137.761ZM44.975 138.439H44.6906C44.6797 138.374 44.6359 138.024 44.6359 138.013C44.6141 137.936 44.5922 137.893 44.4937 137.893H44.2531V138.439H43.9906V137.072H44.4609C44.625 137.072 44.9422 137.072 44.9422 137.433C44.9422 137.685 44.7781 137.739 44.6797 137.772C44.8656 137.783 44.8766 137.903 44.9094 138.078C44.9203 138.188 44.9422 138.374 44.975 138.439ZM44.6688 137.477C44.6688 137.291 44.5375 137.291 44.4719 137.291H44.2531V137.674H44.4609C44.6359 137.674 44.6688 137.553 44.6688 137.477ZM15.0172 121.891C15.0172 121.596 14.8641 121.333 14.6125 121.191L7.90781 117.33C7.79844 117.264 7.66719 117.232 7.53594 117.221H7.47031C7.33906 117.221 7.21875 117.264 7.09844 117.33L0.404687 121.191C0.153125 121.333 0 121.607 0 121.891L0.0109375 132.282C0.0109375 132.424 0.0875 132.555 0.207813 132.632C0.328125 132.708 0.48125 132.708 0.6125 132.632L4.59375 130.346C4.84531 130.193 4.99844 129.93 4.99844 129.646V124.789C4.99844 124.505 5.15156 124.232 5.40313 124.089L7.09844 123.116C7.22969 123.039 7.36094 123.007 7.50312 123.007C7.64531 123.007 7.7875 123.039 7.90781 123.116L9.60313 124.089C9.85469 124.232 10.0078 124.505 10.0078 124.789V129.646C10.0078 129.93 10.1609 130.203 10.4125 130.346L14.3938 132.632C14.5141 132.708 14.6781 132.708 14.7984 132.632C14.9188 132.566 14.9953 132.424 14.9953 132.282L15.0172 121.891ZM51.6797 110.549V129.843C51.6797 130.127 51.5266 130.4 51.275 130.543L44.5703 134.414C44.3187 134.557 44.0125 134.557 43.7609 134.414L37.0562 130.543C36.8047 130.4 36.6516 130.127 36.6516 129.843V122.099C36.6516 121.814 36.8047 121.541 37.0562 121.399L43.7609 117.527C44.0125 117.385 44.3187 117.385 44.5703 117.527L46.2437 118.489C46.4297 118.599 46.6703 118.457 46.6703 118.249V107.968C46.6703 107.661 46.9984 107.464 47.2719 107.618L51.2641 109.849C51.5156 109.98 51.6797 110.253 51.6797 110.549ZM46.6484 124.647C46.6484 124.571 46.6047 124.505 46.55 124.472L44.2531 123.138C44.1875 123.105 44.1109 123.105 44.0453 123.138L41.7484 124.472C41.6828 124.505 41.65 124.571 41.65 124.647V127.305C41.65 127.382 41.6938 127.447 41.7484 127.48L44.0453 128.803C44.1109 128.836 44.1875 128.836 44.2422 128.803L46.5391 127.48C46.6047 127.447 46.6375 127.382 46.6375 127.305V124.647H46.6484ZM69.5953 124.571C69.8469 124.428 70 124.155 70 123.871V122C70 121.716 69.8469 121.443 69.5953 121.3L62.9344 117.428C62.6828 117.286 62.3766 117.286 62.125 117.428L55.4203 121.3C55.1688 121.443 55.0156 121.716 55.0156 122V129.744C55.0156 130.039 55.1688 130.302 55.4203 130.444L62.0812 134.239C62.3219 134.382 62.6281 134.382 62.8797 134.239L66.9047 131.997C67.1781 131.844 67.1781 131.45 66.9047 131.297L60.1562 127.425C60.025 127.349 59.9484 127.218 59.9484 127.075V124.647C59.9484 124.505 60.025 124.374 60.1562 124.297L62.2563 123.083C62.3766 123.007 62.5406 123.007 62.6609 123.083L64.7609 124.297C64.8812 124.374 64.9688 124.505 64.9688 124.647V126.55C64.9688 126.857 65.3078 127.053 65.5812 126.9L69.5953 124.571ZM61.1406 124.953C61.0969 124.986 61.0641 125.03 61.0641 125.085V126.572C61.0641 126.627 61.0969 126.682 61.1406 126.703L62.4312 127.447C62.475 127.48 62.5406 127.48 62.5844 127.447L63.875 126.703C63.9188 126.671 63.9516 126.627 63.9516 126.572V125.085C63.9516 125.03 63.9188 124.975 63.875 124.953L62.5844 124.21C62.5406 124.177 62.475 124.177 62.4312 124.21L61.1406 124.953ZM33.3375 129.711V122.011C33.3375 121.727 33.1625 121.453 32.9109 121.311L26.2281 117.461C25.9984 117.33 25.6812 117.308 25.4187 117.461L18.7359 121.311C18.4844 121.453 18.3094 121.716 18.3094 122.011V129.711C18.3094 130.018 18.5172 130.28 18.7469 130.411L25.4406 134.261C25.7031 134.414 26.0094 134.403 26.25 134.261L32.9219 130.411C33.1188 130.302 33.2609 130.116 33.3156 129.897C33.3266 129.843 33.3375 129.777 33.3375 129.711ZM25.2109 116.05L25.1234 116.105H25.2437L25.2109 116.05ZM33.5453 130.291L33.5016 130.214V130.313L33.5453 130.291Z" fill="black"/>
<path d="M176.125 119.719C176.415 119.719 176.693 119.604 176.898 119.398C177.104 119.193 177.219 118.915 177.219 118.625V98.9375C177.219 98.6474 177.334 98.3692 177.539 98.1641C177.744 97.959 178.022 97.8438 178.313 97.8438H203.469V112.062C203.469 112.353 203.584 112.631 203.789 112.836C203.994 113.041 204.272 113.156 204.563 113.156H218.781V118.625C218.781 118.915 218.896 119.193 219.102 119.398C219.307 119.604 219.585 119.719 219.875 119.719C220.165 119.719 220.443 119.604 220.648 119.398C220.854 119.193 220.969 118.915 220.969 118.625V112.062C220.969 111.919 220.941 111.777 220.886 111.644C220.831 111.511 220.75 111.39 220.649 111.289L205.336 95.9762C205.235 95.8746 205.114 95.7941 204.981 95.7392C204.848 95.6843 204.706 95.6561 204.563 95.6563H178.313C177.442 95.6563 176.608 96.002 175.992 96.6173C175.377 97.2327 175.031 98.0673 175.031 98.9375V118.625C175.031 118.915 175.146 119.193 175.352 119.398C175.557 119.604 175.835 119.719 176.125 119.719ZM205.656 99.3887L217.236 110.969H205.656V99.3887ZM224.25 144.875C224.25 145.165 224.135 145.443 223.93 145.648C223.725 145.854 223.446 145.969 223.156 145.969H215.5C215.21 145.969 214.932 145.854 214.727 145.648C214.521 145.443 214.406 145.165 214.406 144.875V129.562C214.406 129.272 214.521 128.994 214.727 128.789C214.932 128.584 215.21 128.469 215.5 128.469C215.79 128.469 216.068 128.584 216.273 128.789C216.479 128.994 216.594 129.272 216.594 129.562V143.781H223.156C223.446 143.781 223.725 143.896 223.93 144.102C224.135 144.307 224.25 144.585 224.25 144.875ZM187.021 141.539C186.953 142.219 186.736 142.876 186.385 143.463C186.033 144.049 185.557 144.551 184.99 144.932C183.781 145.728 182.245 145.969 180.828 145.969C179.517 145.958 178.213 145.784 176.945 145.452C176.676 145.366 176.45 145.178 176.316 144.929C176.181 144.68 176.149 144.389 176.225 144.116C176.301 143.843 176.48 143.611 176.724 143.467C176.968 143.324 177.258 143.28 177.533 143.346C178.687 143.666 182.061 144.246 183.776 143.106C184.082 142.899 184.337 142.625 184.522 142.306C184.707 141.986 184.818 141.629 184.845 141.26C185.072 139.496 183.647 138.884 180.568 137.995C177.921 137.23 174.629 136.278 175.061 132.863C175.128 132.199 175.339 131.558 175.68 130.985C176.021 130.412 176.484 129.921 177.036 129.546C178.282 128.707 180.043 128.354 182.258 128.502C183.223 128.565 184.181 128.712 185.121 128.942C185.392 129.023 185.621 129.206 185.76 129.452C185.899 129.699 185.937 129.989 185.866 130.263C185.796 130.537 185.621 130.773 185.381 130.921C185.14 131.069 184.851 131.119 184.574 131.058C183.398 130.749 179.978 130.205 178.269 131.362C177.974 131.56 177.728 131.823 177.551 132.13C177.373 132.438 177.268 132.782 177.243 133.136C177.063 134.55 178.307 135.05 181.186 135.893C183.855 136.672 187.514 137.722 187.021 141.539ZM200.188 128.469C195.966 128.469 192.531 132.393 192.531 137.219C192.531 142.045 195.966 145.969 200.188 145.969C201.82 145.96 203.398 145.379 204.647 144.328L205.976 145.654C206.183 145.851 206.459 145.958 206.744 145.954C207.029 145.95 207.301 145.835 207.503 145.633C207.704 145.432 207.819 145.159 207.823 144.874C207.826 144.589 207.718 144.313 207.521 144.107L206.138 142.723C207.262 141.109 207.858 139.186 207.844 137.219C207.844 132.393 204.409 128.469 200.188 128.469ZM200.188 143.781C197.18 143.781 194.719 140.836 194.719 137.219C194.719 133.601 197.18 130.656 200.188 130.656C203.195 130.656 205.656 133.601 205.656 137.219C205.665 138.604 205.286 139.964 204.563 141.145L203.143 139.726C203.043 139.62 202.922 139.536 202.788 139.478C202.654 139.419 202.51 139.388 202.364 139.387C202.218 139.385 202.073 139.412 201.938 139.467C201.803 139.523 201.68 139.604 201.577 139.708C201.474 139.811 201.392 139.934 201.338 140.069C201.283 140.204 201.255 140.349 201.257 140.495C201.259 140.641 201.291 140.785 201.349 140.919C201.408 141.053 201.493 141.173 201.598 141.274L203.094 142.77C202.263 143.418 201.241 143.773 200.188 143.781Z" fill="black"/>
<path opacity="0.6" d="M111.029 99.833H101.305C98.726 99.833 96.253 100.857 94.4296 102.681C92.6062 104.504 91.5819 106.977 91.5819 109.556C91.5819 112.134 92.6062 114.607 94.4296 116.431C96.253 118.254 98.726 119.278 101.305 119.278H111.029V99.833Z" fill="black"/>
<path opacity="0.4" d="M111.029 119.278H101.305C98.7263 119.278 96.2537 120.303 94.4306 122.126C92.6075 123.949 91.5833 126.421 91.5833 129C91.5833 131.578 92.6075 134.05 94.4306 135.874C96.2537 137.697 98.7263 138.721 101.305 138.721H111.029V119.278Z" fill="black"/>
<path d="M130.471 129C130.471 131.579 129.447 134.052 127.624 135.875C125.8 137.698 123.327 138.723 120.749 138.723C118.17 138.723 115.697 137.698 113.874 135.875C112.05 134.052 111.026 131.579 111.026 129C111.026 126.421 112.05 123.948 113.874 122.125C115.697 120.302 118.17 119.277 120.749 119.277C123.327 119.277 125.8 120.302 127.624 122.125C129.447 123.948 130.471 126.421 130.471 129Z" fill="black"/>
<path opacity="0.2" d="M101.305 138.725H111.029V148.446C111.028 150.368 110.458 152.247 109.389 153.846C108.321 155.444 106.803 156.689 105.026 157.425C103.25 158.16 101.296 158.352 99.4103 157.977C97.5248 157.602 95.7929 156.676 94.4335 155.317C93.0742 153.958 92.1484 152.226 91.7732 150.34C91.398 148.455 91.5903 146.5 92.3257 144.724C93.0611 142.948 94.3066 141.43 95.9048 140.361C97.503 139.293 99.3821 138.725 101.305 138.725Z" fill="black"/>
<path opacity="0.8" d="M111.026 99.833H120.747C123.326 99.833 125.799 100.857 127.622 102.681C129.445 104.504 130.47 106.977 130.47 109.556C130.47 112.134 129.445 114.607 127.622 116.431C125.799 118.254 123.326 119.278 120.747 119.278H111.026V99.833Z" fill="black"/>
</svg>
